<svg version="1.2" xmlns="http://www.w3.org/2000/svg" viewBox="0 0 864 864" width="864" height="864">
	<title>MILTONCoffeeCo-id-logo-lockupV-FFF</title>
	<defs>
		<clipPath clipPathUnits="userSpaceOnUse" id="cp1">
			<path d="m0 0h864v864h-864z"/>
		</clipPath>
	</defs>
	<style>
		.s0 { fill: #ffffff } 
	</style>
	<g id="Page 1" clip-path="url(#cp1)">
		<path id="Path 1" fill-rule="evenodd" class="s0" d="m532 298.9l-0.1 7.3v4.8c-0.1 2.4-0.9 22.2-16.8 40.6l0.3 0.6 2.5 4.3-3.1 3.8-2.1 2.6c-0.6 0.7-5.9 7-16.3 13-13.2 7.6-29.2 11.6-46.3 11.6-42 0-61.8-23.6-62.7-24.6l-2.1-2.6-3.1-3.8 2.5-4.3 0.3-0.6c-15.9-18.4-16.7-38.2-16.8-40.6v-4.8l-0.1-7.3h5c-1.7-14.7-0.8-24.6 0.3-30.6l0.8-4.4 1.2-6.6 6.2 0.7c0.9-9.5 3.6-20.6 10.2-30l1.9-2.6 2.7-3.9 4.6 1h0.4c2.7-7.1 7.6-16.3 16.2-23.6l2.4-2 3.5-3 4.2 2 2.1 1c6.9-6.7 14.2-10.7 14.6-10.8l2.2-1.3 3.5-1.8 3.4 1.8 2.2 1.2c0.4 0.2 7.7 4.2 14.6 10.9l2.1-1 4.2-2 3.5 3 2.4 2c8.6 7.3 13.5 16.5 16.2 23.6h0.3l4.7-1.1 2.7 3.9 1.9 2.7c6.6 9.4 9.3 20.5 10.2 30l6.2-0.7 1.2 6.6 0.8 4.4c1.2 6 2 15.9 0.3 30.6zm-134.8-35.1q0.2 0 0.5 0.1c5-10.3 11-18.6 17.1-25.2-4.8-1.9-8.8-3.2-11.3-3.9-4.2 7.4-6.4 17.6-6.3 29zm105.6 0c0.2-11.4-2-21.6-6.2-28.9-2.5 0.7-6.6 1.9-11.4 3.8 6.1 6.6 12.1 14.9 17.2 25.2q0.2-0.1 0.4-0.1zm-15.4 14c7.2 7 14.2 15.3 19.8 25q2.3-0.3 4.7-0.5c2.5-13.4 1.8-25.9 1.1-32.1-9.6 1.6-18.1 4.3-25.6 7.6zm-102.6 32.6c1.1 6.2 4.5 17.8 14.5 28.3 5.4-7.7 11.1-14.3 16.7-19.8-8.7-4.4-19.1-7.8-31.2-8.5zm16.7-5.9c7.9 2 14.9 5 21.1 8.3 8.3-7.3 15.8-12.1 20.5-14.9-4.1-3.9-11.8-10.3-22.4-16.1-6.9 6.3-13.7 13.9-19.2 22.7zm21.5-62.2c-6 6.1-12.1 14-17.2 23.9 4.9 1.6 9.4 3.5 13.6 5.4 9.3-7.9 18.1-13.5 23.5-16.6-6.4-5.4-13.4-9.6-19.9-12.7zm3-34c-7.3 7.2-10.3 16.4-11.5 21.3q3.2 1.1 6.8 2.7c8-7.3 15.6-11.8 20.7-14.4-5.6-4.1-12.4-7.8-16-9.6zm35.1-2.4c-3.8-4.3-8.5-7.6-11.1-9.3-2.6 1.7-7.2 5-11.1 9.3 3.7 2.2 7.7 4.8 11.1 7.5 3.4-2.7 7.4-5.3 11.1-7.5zm24.4 23.7c-1.1-4.8-4.2-14.1-11.5-21.3-3.6 1.8-10.4 5.5-16 9.6 5.2 2.6 12.8 7.2 20.8 14.4q3.6-1.5 6.7-2.7zm-4.9 42c4.2-1.9 8.7-3.8 13.6-5.4-5-9.9-11.1-17.7-17.2-23.9-6.5 3.2-13.5 7.3-19.8 12.7 5.3 3.1 14.1 8.7 23.4 16.6zm17.6 78.4c-6.8-11-14.5-19.8-21.7-26.7-10.2 6.5-17.2 13.8-20.6 17.8 5.3 4.2 15.2 12.8 20.5 21.4 11.5-3.9 18.6-9.5 21.8-12.5zm-66.1 14.8c5.3 1.1 11.2 1.8 17.9 1.8 6.7 0 12.7-0.7 17.9-1.8-5.1-7.2-13.7-14.3-17.9-17.7-4.2 3.4-12.8 10.5-17.9 17.7zm-2-47.4c9.5 6.4 16.2 13.4 19.9 17.7 3.7-4.3 10.4-11.3 19.9-17.7-9-7.5-16.6-11.9-19.9-13.7-3.3 1.8-10.9 6.2-19.9 13.7zm-2.7-41.5c11 6.3 18.6 13.1 22.6 17 4-3.9 11.6-10.7 22.6-17-9.9-8.1-18.9-13.3-22.6-15.3-3.7 2-12.7 7.2-22.6 15.3zm2.2-39.7c6.8 3.5 13.9 8.1 20.4 14 6.5-5.9 13.7-10.4 20.4-14-9.1-7.6-17.3-11.5-20.4-12.8-3.1 1.3-11.2 5.1-20.4 12.8zm-27.7 113.8c3.2 3 10.2 8.6 21.7 12.5 5.3-8.6 15.3-17.2 20.5-21.4-3.4-4-10.4-11.3-20.5-17.8-7.3 6.9-15 15.7-21.7 26.7zm82.1-31.1c5.6 5.5 11.3 12.1 16.7 19.8 10.1-10.5 13.4-22.1 14.5-28.3-12 0.7-22.5 4.1-31.2 8.5zm-4.6-37.1c-10.7 5.8-18.3 12.2-22.5 16.1 4.7 2.8 12.2 7.6 20.6 14.9 6.1-3.3 13.1-6.3 21-8.3-5.5-8.8-12.3-16.4-19.1-22.7zm-92.4-11.6c-0.7 6.2-1.4 18.7 1.2 32.1q2.4 0.2 4.7 0.5c5.6-9.7 12.6-18 19.7-25-7.4-3.3-16-6-25.6-7.6zm-36.8 406.1l2.2 1.5-2.6 0.6q-8.1 1.9-14.8 1.9c-9.4 0-16.8-2.8-22.1-8.3-16-16.8-7-53.7-3.8-64.6 11.3-39.9 37.7-84 49.1-102.6-36.9 37.5-81.6 125.5-81.5 139v1l-0.9 0.2c-0.9 0.2-2.1 0.5-3.6 1-6.9 1.9-18.4 5.3-24.4 1.1-2.2-1.6-3.5-4.2-3.6-7.5-0.9-13.5 20.2-70.2 36.8-113-20.2 26.3-69.5 115.9-71.1 149.3l-0.1 0.8-1.2 0.4c-5.5 1.5-10.7 3-16.9 2.6-3.4-0.4-6.5-1.6-7.5-4.5-7.1-20.1 8.6-57.1 26.7-100.8l4.7-11.3c6.5-15.7 12.4-30.8 17.5-44.8q1-2.7 1.9-5.3c2.3-5.5 4.9-12.5 7-19.2-9.4 15-38 53.7-80.7 68-12.5 4.3-24.2 3.4-34.6-1.9-9.4-4.8-16.2-14.4-18.2-25.6-1.3-7.1-0.3-13.4 2.6-16.6l1.3-1.4 0.7 1.8c1.8 4.6 10.6 16.1 27.1 19.6 45.8 9.8 87.6-35.4 102.8-57.5 2.4-3.6 4.2-6.7 5.4-9.4q0.1-0.2 0.2-0.4 1-2.5 2.3-5c0.3-0.9 0.9-1.7 1.6-2.4 6.1-6.6 23.2-10.6 28.7-10.5 1.2 0.1 2.6 0.2 3 1.3 0.1 0.4 0.3 1.1-0.5 1.9-8.9 18.1-12.1 26-18.8 43.6-7.1 18.9-14.4 36.9-21.5 54.2-6.1 15.2-12.1 29.8-17.6 44.3 22.7-48.3 37.4-71.4 43.5-80.9 5.7-8.9 47.8-23.8 52.8-20.8 0.7 0.5 1.3 1.5 0.5 2.8-22 37-35.4 78.8-43.1 104.3 31.9-64.9 62.3-108.2 88.3-125.6 8.8-5.7 40.8-18.4 47.3-14.7 0.9 0.5 1.2 1.3 1.3 1.8 0.2 1.9-1.8 3.9-3.8 5.9q-0.6 0.6-1.1 1.1c-19.3 18.9-55.6 75-70.9 123.6-8.7 27.8-14.1 64.4 9.6 81zm73.5-193.8c4.4-1.9 8.5-1.9 11.4 0 2.4 1.7 3.6 4.6 3.5 8.2-0.4 7.8-7 16.6-15 20.1-2.2 1-4.3 1.5-6.2 1.5-1.9 0-3.6-0.5-5.1-1.5-2.4-1.7-3.7-4.5-3.6-8.1 0.2-7.8 6.9-16.8 15-20.2zm330.7 30.5c-5.9 19.1-31.6 50.7-50.9 58.2q-9.5 3.6-17.2 3.6-8.6 0-14.7-4.5c-7.7-5.8-11.9-17.3-11-30.8 1.6-23.8 8-38.1 20.2-57.6-17.1 15.7-47.3 65-53.7 86.4l-0.1 0.6-0.6 0.1c-7.8 2-13.3 1.2-16.2-2.6-7.7-9.7 3.9-36.8 14.3-57.5-6.6 5.9-14.8 12.9-21.7 18.9l-2.1 1.8c-7.4 15.4-26.9 55.4-57.6 60.6q-4.3 0.7-8.1 0.7c-8.1 0-14.2-2.4-18-7.1-3.4-4.2-4.8-10.1-4.3-17.1-14.2 19-35.6 43.4-46.1 43.4q-0.6 0-1.2-0.1c-2.8-0.6-4.9-2.1-6.2-4.6-3.1-6.2-1-18.4 6.3-36.2-17.9 24.4-43.4 55.5-55.3 55.5q-0.7 0-1.2-0.1c-2.9-0.6-5-2.2-6.2-4.7-2.4-4.6-1.8-12.5 1.7-23.6-3.1 4-6.1 8-9 11.7-11.6 14.5-26.5 29.5-34.8 29.5q-0.7 0-1.3-0.1c-2.9-0.7-5-2.3-6.3-4.8-3.8-7.8 0.4-24.6 12.8-51.3 5.2-10.9 10.8-21.6 15.3-30.3 4.1-7.8 7.3-14 8.3-16.6l0.1-0.3 0.2-0.2c2-1.7 22.6-8.8 26.5-5.1 0.9 0.9 1.5 2.5-0.7 5.3-3.1 4-7.4 10.6-12.8 19.8-9.2 15.2-16.6 30.5-22.2 45.4-2.1 6-4.1 14.1-3.5 15.8 5.4-1.2 30.1-32.7 38.3-45.8 12.3-25.5 31-55.2 31.6-56.1 0.7-1.2 32.4-55.6 37-67.5l0.1-0.3 0.3-0.2c5.4-3.5 22.7-9.8 26.2-6.1 0.8 0.8 1.3 2.3-0.6 5-5.3 7.4-39.6 65.6-39.9 66.2-0.3 0.5-29.2 48.9-39.9 76.8-2.2 5.7-4.3 14.1-3.4 15.3 0.6-0.1 2.2-1.1 4.2-2.7 9.6-7.5 47.7-61 54.8-71.7 6.7-12 13-22.1 16.3-27.4-5.8 1.5-11.4 3.3-16.5 5.3 1.4-18.6 8.9-18.7 19.8-21.2 2.7-0.5 5.2-1.1 7.8-1.8 9.3-15.5 15.8-28.4 20.5-40.6l0.2-0.3 0.3-0.2c5.4-3.5 22.7-9.8 26.2-6 0.8 0.8 1.3 2.3-0.7 5-4.8 6.7-12.7 20.1-21.6 35.3 8.6-2.2 20.2-5.3 28.1-9.3 4.8 11.3-5.1 17.3-18.6 23.1-4.5 1.7-12 3.3-20.6 5.1l-1.8 2.9c-13.8 23.3-28 47.3-38.5 74.6-2.3 5.7-4.3 14.2-3.4 15.3 0.6-0.1 2.2-0.9 4.2-2.7 8.7-7.9 24-28.3 30.2-37.2 4.4-10.3 14.3-27.1 37-50.6l1.1-1.2 0.3-0.1c6.4-2.1 9.1-2.7 13.3-2.8 4.7-5.6 16.4-12.5 26.3-13.8 5.2-0.7 9.2 0.2 11.9 2.7 2.7 2.5 4 6.4 3.8 11.7-0.1 1.8-0.8 10.6-5.2 21.4 6.2-4.6 18.2-14.6 24.6-19.9q0.7-0.6 1.4-1.1 0.1-0.1 0.1-0.2c1.4-2.7 2.6-4.8 3.3-6.3q0.8-1.6 1.6-3.1c3.1-6.2 6.1-12.1 6.2-15.9l0.1-0.7 0.6-0.3c6.6-3.1 24-9.1 27.2-5.1q1.5 1.8-0.9 5.1-0.5 0.8-1.5 2c-3.4 4.5-10.7 14.1-19.1 31.3 6.3-8.9 11-14.3 18.1-22.2 2.5-2.9 5.4-6.2 8.8-10.1 6-6.7 34.3-15.5 39.5-10.9 1.2 1 1.9 3.1-1.3 6.9-17 20.9-29.8 61.6-29 87.2 0.3 4.8 2.2 8.6 5.2 10.5 3.1 2 7.5 1.9 12.6-0.2 11.8-5.2 23.8-20.5 32.1-41.1 4.8-11.9 7.5-23.8 7.4-32.8v-1.1h1.1c3 0 6.1 1.8 8.3 4.8 3.7 5.1 4.4 12.8 1.8 21zm-179.8 31.3c-4 2.8-9.2 6.3-15.6 6.2-3.1-0.1-5.5-1.2-7-3.2-2-2.7-2.4-7.2-1-14.3-2.6 5-5.5 11.4-7.6 17.9-3.9 12-4.4 21.8-1.2 25.7 1.2 1.5 3.1 2.1 5.6 1.9 11.1-1.5 21.6-22.2 26.8-34.2zm11.9-51.8c-0.2-0.3-0.5-0.4-0.8-0.4q-0.1 0-0.2 0c-4.4 0.4-11.3 9.1-16.1 20.2-4.1 9.7-5.2 18-2.6 20.8 2.1 2.2 7 1 14.3-3.6 0.8-2.2 3.1-10.1 4.8-18.4 2-9.9 2.2-16.8 0.6-18.6zm-166.3 166c-1.3-1.6-3.2-2.4-5.6-2.4-4.9 0-8.6 4-8.6 9.4 0 5.5 3.7 9.5 8.4 9.5 2.6 0 4.7-1.1 6-3.1l5.5 4c-2.5 3.5-6.7 5.1-10.7 5.1-9.2 0-15.9-6-15.9-15.5 0-9.4 6.7-15.4 15.9-15.4 3.3 0 7.5 1.1 10 4.3zm31.9-8.4c9.2 0 15.9 6 15.9 15.5 0 9.4-6.7 15.5-15.9 15.5-9.3 0-16-6.1-16-15.5 0-9.5 6.7-15.5 16-15.5zm0 25c5.5 0 9.1-4 9.1-9.5 0-5.5-3.6-9.5-9.1-9.5-5.6 0-9.2 4-9.2 9.5 0 5.5 3.6 9.5 9.2 9.5zm28.8-24.3h19.8v6h-13.3v6h12.3v6h-12.3v11.5h-6.5zm33.1 0h19.7v6h-13.2v6h12.2v6h-12.2v11.5h-6.5zm33 0h20v6h-13.5v5.5h12.8v6h-12.8v6h14.3v6h-20.8zm34.5 0h20.1v6h-13.6v5.5h12.8v6h-12.8v6h14.3v6h-20.8zm88.7 7.6c-1.3-1.5-3.2-2.4-5.6-2.4-4.9 0-8.5 4-8.5 9.5 0 5.5 3.6 9.5 8.3 9.5 2.6 0 4.7-1.1 6.1-3.1l5.4 4c-2.5 3.5-6.6 5.1-10.7 5.1-9.2 0-15.9-6-15.9-15.5 0-9.4 6.7-15.5 15.9-15.5 3.3 0 7.5 1.2 10 4.4zm31.9-8.4c9.2 0 15.9 6 15.9 15.4 0 9.5-6.7 15.5-15.9 15.5-9.2 0-15.9-6-15.9-15.5 0-9.4 6.7-15.4 15.9-15.4zm0 24.9c5.5 0 9.1-4 9.1-9.5 0-5.5-3.6-9.5-9.1-9.5-5.6 0-9.2 4-9.2 9.5 0 5.5 3.6 9.5 9.2 9.5zm31.8-2.1c2.1 0 3.8 1.7 3.8 3.8 0 2.1-1.7 3.8-3.8 3.8-2.1 0-3.8-1.7-3.8-3.8 0-2.1 1.7-3.8 3.8-3.8z"/>
	</g>
</svg>